<mxfile host="app.diagrams.net" modified="2022-12-29T02:11:21.482Z" agent="5.0 (Windows NT 10.0; Win64; x64) AppleWebKit/537.36 (KHTML, like Gecko) Chrome/104.0.0.0 Safari/537.36" etag="PVhJ5f_xnn2N4iM3haE6" version="18.0.2" type="github">
  <diagram id="piPvYVwWfEq5yCIZ6WKx" name="Page-1">
    <mxGraphModel dx="1422" dy="698" grid="1" gridSize="10" guides="1" tooltips="1" connect="1" arrows="1" fold="1" page="1" pageScale="1" pageWidth="827" pageHeight="1169" math="0" shadow="0">
      <root>
        <mxCell id="0" />
        <mxCell id="1" parent="0" />
        <mxCell id="-HTX5YpuLq2qAqWasYHf-5" style="edgeStyle=orthogonalEdgeStyle;orthogonalLoop=1;jettySize=auto;html=1;strokeColor=#FF6392;fontColor=#5AA9E6;sketch=1;" edge="1" parent="1" source="-HTX5YpuLq2qAqWasYHf-1" target="-HTX5YpuLq2qAqWasYHf-2">
          <mxGeometry relative="1" as="geometry">
            <mxPoint x="330" y="270" as="targetPoint" />
          </mxGeometry>
        </mxCell>
        <mxCell id="-HTX5YpuLq2qAqWasYHf-1" value="&lt;h1&gt;MQ&lt;/h1&gt;" style="whiteSpace=wrap;html=1;strokeWidth=2;fillWeight=4;hachureGap=8;hachureAngle=45;fillColor=#FFE45E;strokeColor=#FF6392;fontColor=#5AA9E6;sketch=1;" vertex="1" parent="1">
          <mxGeometry x="270" y="100" width="120" height="30" as="geometry" />
        </mxCell>
        <mxCell id="-HTX5YpuLq2qAqWasYHf-2" value="" style="ellipse;whiteSpace=wrap;html=1;strokeWidth=2;fillWeight=2;hachureGap=8;fillStyle=dots;fillColor=#FFE45E;strokeColor=#FF6392;fontColor=#5AA9E6;sketch=1;" vertex="1" parent="1">
          <mxGeometry x="270" y="280" width="120" height="60" as="geometry" />
        </mxCell>
        <mxCell id="-HTX5YpuLq2qAqWasYHf-6" value="" style="shape=trapezoid;perimeter=trapezoidPerimeter;whiteSpace=wrap;html=1;fixedSize=1;fontColor=#5AA9E6;strokeColor=#FF6392;fillColor=#FFE45E;sketch=1;" vertex="1" parent="1">
          <mxGeometry x="310" y="420" width="120" height="60" as="geometry" />
        </mxCell>
      </root>
    </mxGraphModel>
  </diagram>
</mxfile>
